<?xml version="1.0" encoding="UTF-8" standalone="no"?>
<!-- Created with Inkscape (http://www.inkscape.org/) -->

<svg
   width="300"
   height="300"
   viewBox="0 0 79.374998 79.375"
   version="1.1"
   id="svg1"
   xmlns:xlink="http://www.w3.org/1999/xlink"
   xmlns="http://www.w3.org/2000/svg"
   xmlns:svg="http://www.w3.org/2000/svg">
  <defs
     id="defs1" />
  <g
     id="layer1">
    <rect
       style="fill:#ffffff;fill-opacity:1;stroke:#333333;stroke-width:3;stroke-linecap:square;stroke-linejoin:miter;stroke-dasharray:none;stroke-opacity:1;paint-order:markers fill stroke"
       id="rect538"
       width="53.126602"
       height="53.126602"
       x="-26.56354"
       y="29.563301"
       transform="matrix(0.70710978,-0.70710378,0.70710978,0.70710378,0,0)" />
    <rect
       style="fill:#ffffff;fill-opacity:1;stroke:#328641;stroke-width:3;stroke-linecap:square;stroke-linejoin:miter;stroke-dasharray:none;stroke-opacity:1;paint-order:markers fill stroke"
       id="rect541"
       width="53.126602"
       height="53.126602"
       x="36.633862"
       y="92.760704"
       transform="matrix(0.70710978,-0.70710378,0.70710978,0.70710378,0,0)" />
    <rect
       style="fill:#ffffff;fill-opacity:1;stroke:#e64136;stroke-width:3;stroke-linecap:square;stroke-linejoin:miter;stroke-dasharray:none;stroke-opacity:1;paint-order:markers fill stroke"
       id="rect543"
       width="53.126602"
       height="53.126602"
       x="99.831146"
       y="155.95799"
       transform="matrix(0.70710978,-0.70710378,0.70710978,0.70710378,0,0)" />
    <rect
       style="fill:#ffffff;fill-opacity:1;stroke:#ffba00;stroke-width:3;stroke-linecap:square;stroke-linejoin:miter;stroke-dasharray:none;stroke-opacity:1;paint-order:markers fill stroke"
       id="rect683"
       width="53.126602"
       height="53.126602"
       x="163.02867"
       y="219.15552"
       transform="matrix(0.70710978,-0.70710378,0.70710978,0.70710378,0,0)" />
    <circle
       style="fill:none;fill-opacity:1;stroke:#328641;stroke-width:2.17893;stroke-linecap:round;stroke-linejoin:round;stroke-dasharray:none;stroke-opacity:1;paint-order:fill markers stroke"
       id="path2"
       cx="39.6875"
       cy="39.6875"
       r="16.871134" />
    <circle
       style="fill:#328641;fill-opacity:1;stroke:#328641;stroke-width:1.11981;stroke-linecap:round;stroke-linejoin:round;stroke-dasharray:none;stroke-opacity:1;paint-order:fill markers stroke"
       id="circle2"
       cx="39.6875"
       cy="39.6875"
       r="13.921871" />
    <circle
       style="opacity:0.97;fill:#ffffff;fill-opacity:1;stroke:#006e43;stroke-width:1.11981;stroke-linecap:round;stroke-linejoin:round;stroke-dasharray:none;stroke-opacity:1;paint-order:fill markers stroke"
       id="circle3"
       cx="-2.3348062e-05"
       cy="56.126595"
       r="8.1203909"
       transform="rotate(-45)" />
    <circle
       style="fill:#e64136;fill-opacity:1;stroke:#e64136;stroke-width:1.11981;stroke-linecap:round;stroke-linejoin:round;stroke-dasharray:none;stroke-opacity:1;paint-order:fill markers stroke"
       id="circle4"
       cx="-48.607056"
       cy="28.063307"
       r="5.7502732"
       transform="rotate(-105)" />
    <path
       id="circle8"
       style="opacity:0.97;fill:#ffffff;stroke-width:1.11981;stroke-linecap:round;stroke-linejoin:round;paint-order:fill markers stroke"
       d="m 41.878478,34.988946 c 1.104638,0.515101 1.992474,1.402937 2.50758,2.50758 l -3.860534,1.352954 z" />
    <path
       id="path11"
       style="opacity:0.97;fill:#ffffff;stroke-width:1.11981;stroke-linecap:round;stroke-linejoin:round;paint-order:fill markers stroke"
       d="m 34.988957,41.878468 c 0.515102,1.104636 1.402938,1.992473 2.507581,2.50758 l 1.352954,-3.860536 z" />
    <path
       id="path12"
       style="opacity:0.97;fill:#ffffff;stroke-width:1.11981;stroke-linecap:round;stroke-linejoin:round;paint-order:fill markers stroke"
       d="m 41.878478,44.386048 c 1.104638,-0.515107 1.992474,-1.402944 2.50758,-2.50758 l -3.860534,-1.352956 z" />
    <path
       id="path13"
       style="opacity:0.97;fill:#ffffff;stroke-width:1.11981;stroke-linecap:round;stroke-linejoin:round;paint-order:fill markers stroke"
       d="m 34.988957,37.496526 c 0.515102,-1.104643 1.402938,-1.992479 2.507581,-2.50758 l 1.352954,3.860534 z" />
    <path
       id="path14"
       style="fill:#ffffff;fill-opacity:1;stroke:none;stroke-width:1.11981;stroke-linecap:round;stroke-linejoin:round;stroke-dasharray:none;stroke-opacity:1;paint-order:fill markers stroke"
       d="m 39.687508,25.765655 -2.975274,2.665681 0.574048,4.338644 h 1.873577 v -4.338644 h 1.03765 v 4.338644 h 1.891225 l 0.574048,-4.338644 z" />
    <circle
       style="fill:#000000;fill-opacity:0;stroke:#006e43;stroke-width:1.11981;stroke-linecap:round;stroke-linejoin:round;stroke-dasharray:none;stroke-opacity:1;paint-order:fill markers stroke"
       id="circle47"
       cx="-48.607056"
       cy="28.063307"
       r="8.1157274"
       transform="rotate(-105)" />
    <use
       x="0"
       y="0"
       xlink:href="#path14"
       id="use47" />
    <use
       x="0"
       y="0"
       xlink:href="#path14"
       transform="rotate(36,39.68751,39.66805)"
       id="use48" />
    <use
       x="0"
       y="0"
       xlink:href="#path14"
       transform="rotate(72,39.687503,39.668036)"
       id="use49" />
    <use
       x="0"
       y="0"
       xlink:href="#path14"
       transform="rotate(108,39.687508,39.668029)"
       id="use50" />
    <use
       x="0"
       y="0"
       xlink:href="#path14"
       transform="rotate(144,39.687509,39.668035)"
       id="use51" />
    <use
       x="0"
       y="0"
       xlink:href="#path14"
       transform="rotate(180,39.687508,39.668023)"
       id="use52" />
    <use
       x="0"
       y="0"
       xlink:href="#path14"
       transform="rotate(-144,39.687509,39.66803)"
       id="use53" />
    <use
       x="0"
       y="0"
       xlink:href="#path14"
       transform="rotate(-108,39.687503,39.668032)"
       id="use54" />
    <use
       x="0"
       y="0"
       xlink:href="#path14"
       transform="rotate(-72,39.687502,39.66803)"
       id="use55" />
    <use
       x="0"
       y="0"
       xlink:href="#path14"
       transform="rotate(-36,39.687508,39.668048)"
       id="use56" />
    <circle
       style="fill:none;fill-opacity:1;stroke:#328641;stroke-width:1.11981;stroke-linecap:round;stroke-linejoin:round;stroke-dasharray:none;stroke-opacity:1;paint-order:fill markers stroke"
       id="circle56"
       cx="-2.3348062e-05"
       cy="56.126595"
       r="8.1203909"
       transform="rotate(-45)" />
    <path
       id="path461"
       style="fill:#328641;stroke-width:0.481206;stroke-linecap:round;stroke-linejoin:round;paint-order:fill markers stroke"
       d="m 123.8263,19.003056 c -0.62163,2.52e-4 -0.40774,-0.0065 -0.62163,2.52e-4 -0.24942,0.0077 -0.45328,0.0421 -0.59963,0.107765 -0.74704,0.335135 -3.12722,1.782478 0.17258,6.081568 -0.14835,0.42962 -0.30112,1.434162 -0.3759,1.892544 -2.68136,-0.407466 -5.55144,-2.177899 -7.50299,-3.798545 1.76958,3.860241 3.8434,5.066831 7.79568,6.922903 0.13001,0.423435 0.29289,0.830928 0.48502,1.21905 -0.22438,-0.02193 -0.45362,-0.03777 -0.68583,-0.04311 -0.88594,-0.0204 -1.83621,0.08019 -2.68389,0.60197 -0.8477,0.521773 -1.49708,1.579366 -1.54814,2.895889 -0.0612,1.579515 0.21867,3.906349 0.73533,6.543131 l -1.00855,0.213535 c 0.0265,-0.170492 0.041,-0.344933 0.041,-0.522697 0,-1.663412 -1.4013,-2.525123 -2.91902,-2.525123 -1.51775,0 -2.72197,1.406878 -2.72197,3.070289 0,1.663413 1.40039,2.524875 2.91811,2.524875 0.70891,0 1.34943,-0.307033 1.83101,-0.803616 l 2.17135,-0.460019 c 0.18607,0.844762 0.38817,1.706942 0.6143,2.58475 0.14831,0.57557 0.30597,1.153004 0.46968,1.729602 -2.66467,4.337708 -5.30804,4.638404 -4.57338,4.626783 1.83627,-0.02906 3.21607,-1.140838 3.54607,-1.368911 0.95291,-0.659446 0.81056,-0.654052 1.54879,-1.517112 1.36998,4.019286 2.15772,9.060578 5.61419,11.65042 -1.71078,-3.74631 -3.16304,-8.92422 -4.19121,-13.597033 0.74625,-1.186256 1.3534,-2.451265 1.8468,-3.718834 0.20688,1.751031 0.65933,5.174943 1.42825,8.918306 0.55087,2.681824 1.26045,5.510915 2.16495,7.987361 0.90451,2.476446 2.17627,4.241496 4.65933,6.5716 -2.83521,-6.440341 -2.23481,-14.321169 -1.05091,-21.238225 0.50456,0.05711 1.21422,0.124693 2.22977,-0.234954 -0.11237,0.415574 -0.26982,0.821689 -0.3326,1.249766 -1.20396,8.207925 1.59445,14.770371 1.5141,13.728671 -0.88738,-5.082503 0.10359,-12.19901 1.55969,-17.638495 l 3.40779,-0.06664 c 0.48261,0.502066 1.12688,0.81278 1.84038,0.81278 1.51774,0 2.72218,-1.405637 2.72218,-3.06905 0,-1.663413 -1.12038,-2.585452 -2.63811,-2.585452 -1.51772,0 -2.80693,0.922039 -2.80693,2.585452 0,0.253254 0.0282,0.500465 0.081,0.737723 l -2.16473,0.04235 c 0.42886,-1.486607 0.81081,-2.823504 1.04156,-3.799588 0.3909,-1.65338 0.41614,-2.85386 9.2e-4,-3.809746 -0.41525,-0.955882 -1.33419,-1.407783 -2.07992,-1.46058 -0.3617,-0.0256 -0.71246,0.0048 -1.03697,0.0644 0.0409,-0.401947 0.0359,-0.831957 -0.009,-1.290889 -0.24013,-2.423593 -1.36028,-5.03683 -3.17648,-6.936019 4.14527,0.267719 6.34443,-0.593083 9.04468,-5.186839 -7.67389,7.276277 -10.53229,0.305239 -16.75607,0.307716 z m 0.33166,2.032279 c 0.41343,-0.01963 1.07588,0.124887 2.071,0.495449 -0.83994,0.208573 -1.59982,0.725792 -2.19042,1.404843 -0.47386,-0.91244 -0.85947,-1.853809 0.11942,-1.900292 z m 2.77032,2.432154 c 0.21323,-0.0019 0.43697,0.04004 0.67413,0.129063 2.8552,1.071595 4.93471,4.607867 5.21539,7.440636 0.0684,0.690187 -0.007,1.118447 -0.11367,1.373626 -0.10749,0.255182 -0.23806,0.393366 -0.51186,0.540284 -0.54751,0.293844 -1.70261,0.403543 -3.11093,0.403543 -2.31805,0 -4.54245,-2.233398 -4.81264,-4.96042 -0.13237,-1.335939 0.28411,-2.845033 0.96592,-3.801325 0.51136,-0.717215 1.05401,-1.119526 1.69368,-1.125407 z m -2.09597,10.375417 c -0.12117,1.2638 -0.44145,3.774941 -1.24808,6.551301 l -3.05924,-1.73864 c -0.97053,-4.384687 0.31895,-5.904326 4.30732,-4.812661 z m 9.41352,9.208143 c -0.27449,0.410684 -0.62795,0.651056 -1.06771,0.807579 -0.51209,0.182266 -1.13612,0.22053 -1.73791,0.169442 -0.27783,-0.02358 -0.54505,-0.06526 -0.79448,-0.114202 -1.6694,-0.484729 -4.06289,-1.633495 -5.71989,-2.768563 0.77686,-2.598872 1.12023,-4.984845 1.27285,-6.490115 0.23383,0.128866 0.47418,0.24372 0.72089,0.341613 -0.0972,0.872127 -1.27039,3.86048 -0.32702,7.164256 0.29652,-2.048065 0.72404,-5.453718 1.70598,-6.8006 0.25755,0.03552 0.51839,0.05574 0.78256,0.05574 0.0721,0 0.1405,-0.0019 0.21203,-0.0019 -0.70971,2.406089 -1.31923,4.520551 -0.93542,7.100989 1.30239,-4.361575 1.91072,-6.373038 2.41547,-7.14013 0.24304,-0.01767 0.48121,-0.04513 0.71493,-0.0825 l -0.93328,2.975421 c -0.40574,1.863166 -0.6444,4.687022 -0.26798,4.804514 1.2185,-5.062147 1.48649,-4.649739 3.78994,-8.703405 0,0 3.29461,-1.29389 0.16904,8.681673 z m 7.4431,-3.768335 c 0.7057,0 1.21902,0.171564 1.21902,1.051792 0,0.880232 -0.59738,1.535393 -1.30312,1.535393 -0.70569,0 -1.30377,-0.655161 -1.30377,-1.535393 0,-0.880228 0.68215,-1.051792 1.38787,-1.051792 z m -26.57859,0.844125 c 0.70572,0 1.49996,0.110246 1.49996,0.990478 0,0.880227 -0.59807,1.535389 -1.3038,1.535389 -0.70571,0 -1.49905,-0.11 -1.49905,-0.990227 0,-0.880232 0.59717,-1.53564 1.30289,-1.53564 z m 5.67193,0.388258 2.33482,1.348609 c -0.3676,1.056815 -0.8129,2.120016 -1.34367,3.138911 -0.002,-0.01583 -0.008,-0.03176 -0.0129,-0.04754 -0.39318,-1.526102 -0.72221,-3.042358 -0.97832,-4.439957 z m 5.03638,2.907287 c 1.20447,0.70491 2.48488,1.229781 3.72431,1.843563 -0.0844,0.451752 -0.27599,2.429273 -0.44204,3.792212 l -3.1773,-4.771466 c -0.0365,-0.298538 -0.0777,-0.62601 -0.10493,-0.864309 z m 0.47884,3.573418 2.61629,3.08094 c -0.033,0.39228 0.0758,1.809489 0.0491,2.238984 l -2.37359,-3.537308 c -0.10973,-0.634194 -0.2069,-1.230111 -0.29179,-1.782616 z m 0.8231,4.60667 1.61324,1.826967 c -0.0319,1.653674 0.028,3.407003 0.2157,5.144728 -0.70373,-2.116812 -1.31169,-4.444141 -1.77849,-6.716786 -0.0181,-0.08777 -0.0327,-0.168127 -0.0504,-0.254909 z" />
    <path
       style="fill:#e64136;fill-opacity:1;stroke-width:0.288723;stroke-linecap:round;stroke-linejoin:round;stroke-dasharray:none;paint-order:fill markers stroke"
       d="m 127.75299,26.273415 c -1.17547,0 -2.16323,0.880445 -2.16323,1.982107 0,1.101664 0.98776,1.982107 2.16323,1.982107 1.17547,0 2.16324,-0.880443 2.16324,-1.982107 0,-1.101662 -0.98777,-1.982107 -2.16324,-1.982107 z m 0,1.009955 c 0.62611,0 1.09852,0.442004 1.09852,0.972152 0,0.530151 -0.47241,0.972152 -1.09852,0.972152 -0.62611,0 -1.09936,-0.442001 -1.09936,-0.972152 0,-0.530148 0.47325,-0.972152 1.09936,-0.972152 z"
       id="path478" />
    <g
       id="g544"
       transform="matrix(1.0893515,0,0,1.1983071,-18.0854,-8.0906821)">
      <path
         id="path487"
         style="fill:#e64136;fill-opacity:1;stroke:none;stroke-width:0.242569;stroke-linecap:round;stroke-linejoin:round;stroke-dasharray:none;stroke-opacity:1;paint-order:fill markers stroke"
         d="m 209.55705,24.251839 0.76554,0.991632 c 1.0252,1.327883 1.44019,5.32069 2.35245,5.669982 2.35056,-0.133719 2.58721,-1.494989 2.33342,-2.584246 0.40272,-1.20162 0.72344,-1.649148 1.42831,-2.844529 v 0 l -1.94153,1.736711 c -1.22236,-1.289713 -3.44013,-2.494995 -4.93819,-2.96955 z" />
      <path
         style="fill:#e64136;fill-opacity:1;stroke:none;stroke-width:0.24257;stroke-linecap:round;stroke-linejoin:round;stroke-dasharray:none;stroke-opacity:1;paint-order:fill markers stroke"
         d="m 217.46444,23.423937 c 0,0 2.09596,2.376854 4.74739,2.649609 2.65149,0.272756 2.22214,0.194823 2.22214,0.194823 l -7.87859,4.227684 c 0,0 2.95447,-4.208201 0.90906,-7.072116 z"
         id="path488" />
      <path
         style="fill:#e64136;fill-opacity:1;stroke:none;stroke-width:0.24257;stroke-linecap:round;stroke-linejoin:round;stroke-dasharray:none;stroke-opacity:1;paint-order:fill markers stroke"
         d="m 205.34704,31.321593 3.35683,2.479709 c 0,0 14.89182,-3.244451 17.8916,-3.244451 0.67497,0 2.55887,0.842904 0.93093,-0.326821 -0.58154,-0.417846 -3.14031,-2.204425 -3.14031,-2.204425 l -15.71792,3.268437 z"
         id="path489" />
      <path
         style="fill:#e64136;fill-opacity:1;stroke:none;stroke-width:0.24257;stroke-linecap:round;stroke-linejoin:round;stroke-dasharray:none;stroke-opacity:1;paint-order:fill markers stroke"
         d="m 206.30752,34.055321 5.31676,1.575868 1.98727,6.559031 c 0,0 -2.92578,2.044375 -3.69862,1.064778 -0.77282,-0.97959 -2.07682,-8.177493 -3.60541,-9.199677 z"
         id="path490" />
      <path
         style="fill:#e64136;fill-opacity:1;stroke:none;stroke-width:0.24257;stroke-linecap:round;stroke-linejoin:round;stroke-dasharray:none;stroke-opacity:1;paint-order:fill markers stroke"
         d="m 208.9659,34.843253 c 0,0 7.17794,0.02132 11.17385,-1.682351 3.99586,-1.703645 3.99586,-1.490682 3.99586,-1.490682 0,0 6.38246,3.407285 5.94089,3.662836 -0.15278,0.08836 -1.53572,0.193764 -2.4129,0.96254 -1.65962,1.45432 -3.21789,3.964722 -3.21789,3.964722 L 222.8626,39.0859 c 0,0 2.1139,-2.773254 1.69344,-3.15657 -0.42043,-0.383322 -2.84259,-2.001781 -2.84259,-2.001781 l -11.13809,2.683237 z"
         id="path491" />
      <path
         style="fill:#e64136;fill-opacity:1;stroke:none;stroke-width:0.24257;stroke-linecap:round;stroke-linejoin:round;stroke-dasharray:none;stroke-opacity:1;paint-order:fill markers stroke"
         d="m 210.44494,38.2933 1.70717,1.261104 c 0,0 10.3085,-2.330251 11.83403,-2.330251 1.52562,0 -1.12354,-1.287315 -1.12354,-1.287315 l -10.72868,2.342446 z"
         id="path492" />
      <path
         style="fill:#e64136;fill-opacity:1;stroke:none;stroke-width:0.24257;stroke-linecap:round;stroke-linejoin:round;stroke-dasharray:none;stroke-opacity:1;paint-order:fill markers stroke"
         d="m 210.44494,41.442355 1.70717,1.261105 c 0,0 10.3085,-2.330252 11.83403,-2.330252 1.52562,0 -1.12354,-1.287308 -1.12354,-1.287308 l -10.72868,2.342439 z"
         id="path493" />
      <path
         style="fill:#e64136;fill-opacity:1;stroke:none;stroke-width:0.24257;stroke-linecap:round;stroke-linejoin:round;stroke-dasharray:none;stroke-opacity:1;paint-order:fill markers stroke"
         d="m 204.68273,45.394573 c -1.20998,-1.940808 0.64772,-1.556163 0.64772,-1.556163 2.44084,1.05955 4.59933,5.624888 5.32738,9.310163 0,0 -1.71711,0.857229 -4.6968,-1.870311 -0.87641,-0.802212 -0.0683,-3.942888 -1.2783,-5.883689 z"
         id="path494" />
      <path
         style="fill:#e64136;fill-opacity:1;stroke:none;stroke-width:0.24257;stroke-linecap:round;stroke-linejoin:round;stroke-dasharray:none;stroke-opacity:1;paint-order:fill markers stroke"
         d="m 199.12294,46.408556 c 0,0 1.60911,0.413683 3.44333,0.01801 5.89881,-1.272391 20.43324,-3.809473 23.1929,-4.986037 3.65569,-1.558583 3.90816,-1.129975 3.90816,-1.129975 0,0 5.83905,3.117188 5.43503,3.350967 -0.13977,0.08085 -1.40487,0.177273 -2.20745,0.880598 -1.51824,1.330496 -2.94382,3.627149 -2.94382,3.627149 l -1.44839,-1.074417 c 0,0 1.93386,-2.537133 1.54924,-2.887814 -0.38461,-0.350688 -2.60055,-1.831345 -2.60055,-1.831345 l -24.4824,5.533002 z"
         id="path495" />
      <path
         style="fill:#e64136;fill-opacity:1;stroke:none;stroke-width:0.24257;stroke-linecap:round;stroke-linejoin:round;stroke-dasharray:none;stroke-opacity:1;paint-order:fill markers stroke"
         d="m 231.75236,45.719086 c 0,0 -3.12673,5.587335 -4.36985,6.572265 -1.24323,0.984924 -1.71711,1.285837 -1.71711,1.285837 0,0 -5.68837,-4.318365 -7.85249,-5.916626 -0.35531,-0.26246 1.33531,0.281733 1.08488,0.149824 -1.77513,-0.935156 -1.38517,-0.740329 -1.38517,-0.740329 0,0 6.28407,3.156156 7.04161,2.649607 0.75756,-0.506541 4.74114,-6.08074 4.74114,-6.08074 l 1.77386,-0.07569 z"
         id="path496" />
      <path
         style="fill:#e64136;fill-opacity:1;stroke:none;stroke-width:0.24257;stroke-linecap:round;stroke-linejoin:round;stroke-dasharray:none;stroke-opacity:1;paint-order:fill markers stroke"
         d="m 215.80225,34.274169 0.92574,1.858658 v 11.377905 l 2.1698,0.299654 -0.37259,-12.050116 z"
         id="path497" />
      <path
         style="fill:#e64136;fill-opacity:1;stroke:none;stroke-width:0.24257;stroke-linecap:round;stroke-linejoin:round;stroke-dasharray:none;stroke-opacity:1;paint-order:fill markers stroke"
         d="m 210.65783,47.498671 c 0,0 2.77883,1.858069 3.34111,1.858069 0.56223,0 7.57008,-2.314391 7.57008,-2.314391 v 0 l -1.79977,2.079034 4.84509,-3.249814 -2.08397,-0.978971 c -6.5227,2.373039 -8.96908,2.917788 -8.96908,2.917788 z"
         id="path498" />
    </g>
    <rect
       style="fill:none;fill-opacity:1;stroke:#333333;stroke-width:0.999991;stroke-linecap:square;stroke-linejoin:miter;stroke-dasharray:none;stroke-opacity:1;paint-order:markers stroke fill"
       id="rect539"
       width="46.720074"
       height="46.720074"
       x="-23.360271"
       y="32.766563"
       transform="matrix(0.70710978,-0.70710378,0.70710978,0.70710378,0,0)" />
    <rect
       style="fill:none;fill-opacity:1;stroke:#328641;stroke-width:0.999991;stroke-linecap:square;stroke-linejoin:miter;stroke-dasharray:none;stroke-opacity:1;paint-order:markers stroke fill"
       id="rect542"
       width="46.720074"
       height="46.720074"
       x="39.837132"
       y="95.963966"
       transform="matrix(0.70710978,-0.70710378,0.70710978,0.70710378,0,0)" />
    <rect
       style="fill:none;fill-opacity:1;stroke:#e64136;stroke-width:0.999991;stroke-linecap:square;stroke-linejoin:miter;stroke-dasharray:none;stroke-opacity:1;paint-order:markers stroke fill"
       id="rect544"
       width="46.720074"
       height="46.720074"
       x="103.03442"
       y="159.16125"
       transform="matrix(0.70710978,-0.70710378,0.70710978,0.70710378,0,0)" />
    <rect
       style="fill:none;fill-opacity:1;stroke:#ffba00;stroke-width:0.999991;stroke-linecap:square;stroke-linejoin:miter;stroke-dasharray:none;stroke-opacity:1;paint-order:markers stroke fill"
       id="rect684"
       width="46.720074"
       height="46.720074"
       x="166.23193"
       y="222.35878"
       transform="matrix(0.70710978,-0.70710378,0.70710978,0.70710378,0,0)" />
    <path
       style="fill:#ffba00;fill-opacity:1;stroke:none;stroke-width:0.244325;stroke-linecap:round;stroke-linejoin:round;stroke-dasharray:none;stroke-opacity:1;paint-order:fill markers stroke"
       d="m 304.66969,21.944422 2.59683,6.013971 c 0,0 -8.62117,4.970993 -14.92872,5.633948 5.24441,-2.496762 9.56968,-6.060555 11.27787,-8.492438 0.99857,-1.421538 1.05402,-3.155481 1.05402,-3.155481 z"
       id="path684" />
    <path
       style="fill:#ffba00;fill-opacity:1;stroke:none;stroke-width:0.288556;stroke-linecap:round;stroke-linejoin:round;stroke-dasharray:none;stroke-opacity:1;paint-order:fill markers stroke"
       d="m 291.12918,38.183929 4.08117,2.722409 c 0,0 10.89239,-4.900641 14.27972,-5.22032 0.76216,-0.072 2.98825,0.774319 1.01288,-0.505171 -0.70566,-0.457044 -3.80443,-2.403534 -3.80443,-2.403534 l -11.8224,5.018485 z"
       id="path685" />
    <path
       id="path686"
       style="fill:#ffba00;fill-opacity:1;stroke:none;stroke-width:0.318787;stroke-linecap:round;stroke-linejoin:round;stroke-dasharray:none;stroke-opacity:1;paint-order:fill markers stroke"
       d="m 299.44716,30.455604 -2.02695,0.841093 c 1.30281,0.747173 2.71315,1.024167 4.34278,3.945121 0.0165,0.37258 0.13581,7.23263 0.23361,10.837219 0,0.891967 -0.0124,3.056856 -0.33941,4.721154 -1.82785,0.408825 -5.53967,-1.348516 -5.53967,-1.348516 l 6.93237,6.66554 c 0,0 0.59395,-0.414956 2.15177,-1.772537 0,-13.94173 -0.74814,-16.99791 1.15317,-20.054515 0.73779,-1.186088 -6.90767,-3.834559 -6.90767,-3.834559 z" />
    <path
       style="fill:#ffba00;fill-opacity:1;stroke:none;stroke-width:1.15026;stroke-linecap:square;stroke-linejoin:miter;stroke-dasharray:none;stroke-opacity:1;paint-order:markers stroke fill"
       d="m 300.99322,36.707849 c 0,0 3.8139,3.415761 4.65741,4.923267 2.48876,4.447877 5.65081,2.11115 3.82935,-0.550997 -1.82143,-2.662146 -8.48676,-4.372282 -8.48676,-4.37227 z"
       id="path687" />
    <path
       style="fill:#ffba00;fill-opacity:1;stroke:none;stroke-width:0.190651;stroke-linecap:round;stroke-linejoin:round;stroke-dasharray:none;stroke-opacity:1;paint-order:fill markers stroke"
       d="m 300.06729,36.820115 3.25136,3.944259 c 0,0 -5.17779,9.502076 -13.05056,12.08704 4.51971,-3.626016 8.94115,-11.243993 9.69385,-13.437432 0.44002,-1.282182 0.10536,-2.593867 0.10536,-2.593867 z"
       id="path688" />
    <path
       style="fill:#ffba00;fill-opacity:1;stroke:none;stroke-width:0.242259;stroke-linecap:round;stroke-linejoin:round;stroke-dasharray:none;stroke-opacity:1;paint-order:fill markers stroke"
       d="m 308.82185,34.217977 5.06276,1.650666 2.03768,10.495142 c 0,0 -2.78601,2.141424 -3.52192,1.115325 -0.73591,-1.026088 -2.12296,-12.190438 -3.57852,-13.261133 z"
       id="path692" />
    <path
       style="fill:#ffba00;fill-opacity:1;stroke:none;stroke-width:0.242259;stroke-linecap:round;stroke-linejoin:round;stroke-dasharray:none;stroke-opacity:1;paint-order:fill markers stroke"
       d="m 311.35323,35.043299 c 0,0 2.12005,1.255622 5.92505,-0.528901 3.80496,-1.78451 3.80496,-1.561441 3.80496,-1.561441 0,0 6.07757,3.569022 5.65709,3.836699 -0.14548,0.09259 -1.46235,0.202963 -2.29764,1.008236 -1.58032,1.523356 -3.06415,7.196315 -3.06415,7.196315 l -1.94974,-1.293359 c 0,0 2.01291,-5.948285 1.61254,-6.349793 -0.40036,-0.401509 -1.90482,-1.108634 -1.90482,-1.108634 l -5.89101,1.577303 z"
       id="path693" />
    <path
       style="fill:#ffba00;fill-opacity:1;stroke:none;stroke-width:0.212009;stroke-linecap:round;stroke-linejoin:round;stroke-dasharray:none;stroke-opacity:1;paint-order:fill markers stroke"
       d="m 311.7482,43.897424 2.99852,2.000219 c 0,0 4.46251,-0.760022 6.95125,-0.994893 0.55996,-0.05292 2.59523,0.387223 1.14388,-0.552849 -0.51847,-0.335795 -2.79519,-1.765923 -2.79519,-1.765923 l -5.5455,1.028285 z"
       id="path694" />
    <g
       id="g734">
      <path
         id="path702"
         style="fill:#328641;fill-opacity:1;stroke:#ffffff;stroke-width:1.921;stroke-linecap:round;stroke-linejoin:round;stroke-dasharray:none;stroke-opacity:1;paint-order:fill markers stroke"
         d="m 125.45525,44.51204 c 0,0 0.3852,0.829813 0.19118,1.69984 -0.33169,1.488375 -1.79186,4.032316 -3.99875,6.255216 1.09671,-0.535248 2.21714,-1.361192 3.21785,-2.216873 0.27553,0.04221 0.58159,0.107078 0.90332,0.215155 0.33763,0.113405 0.88754,0.36178 1.55528,0.688163 -2.47029,2.213697 -6.11363,5.073549 -9.81378,6.523503 3.65226,-0.793294 6.98141,-2.663188 9.64682,-4.540537 0.37983,0.272713 0.78148,0.686729 1.21301,1.460207 0.003,0.07031 0.0184,0.458669 0.0325,0.823344 l -1.27163,0.480054 -1.9379,0.200821 2.11086,1.407844 c 0,0 0.47404,-0.196562 1.15571,-0.448005 0.0105,0.33321 0.0211,0.673695 0.0312,1.046575 0,0.461301 -0.006,1.58092 -0.17556,2.441654 -0.55829,0.124876 -1.45,-0.140862 -2.09185,-0.379508 0.69074,-0.621006 1.14399,-1.090332 1.14399,-1.090332 l -1.6816,-2.039749 c 0,0 0.17314,0.678307 -0.0544,1.341429 -0.38928,1.134407 -1.66615,3.001323 -3.41895,4.557726 1.31594,-0.535555 2.75769,-1.665012 3.78152,-2.564603 l 3.04179,2.924834 c 0,0 0.30705,-0.214739 1.11273,-0.916857 0,-3.177481 -0.0748,-4.853054 -0.0747,-5.870764 0.78525,-0.242854 1.59444,-0.451002 2.21686,-0.509745 0.39418,-0.03721 1.54544,0.400484 0.52382,-0.261248 -0.36496,-0.23638 -1.9676,-1.242971 -1.9676,-1.242971 l -0.43134,0.162791 c 0.0877,-0.163073 0.19489,-0.338936 0.32949,-0.555326 0.26286,-0.422592 -1.51596,-1.195859 -2.65811,-1.641226 0.2484,-0.185175 0.4932,-0.36994 0.72723,-0.551682 3.02344,1.56952 6.95016,3.792202 6.95016,3.792202 0,0 5.95512,-1.005419 5.34123,-1.005419 -2.53606,0 -7.90899,-2.128029 -11.32269,-3.559339 1.26409,-1.031896 2.25348,-1.93237 2.88628,-2.473959 0.47617,-0.407535 1.47844,-0.46442 1.47844,-0.46442 -3.66904,-2.046122 -3.82158,-2.351914 -3.94354,-2.408837 -0.14192,0.06839 -0.25852,0.251545 -1.48755,0.736613 -0.19311,0.07621 -0.39188,0.134144 -0.58893,0.179725 z m 4.7489,1.279958 c 0.0571,-0.02748 0.0681,-0.03843 0.0544,-0.03881 v 2.56e-4 c -0.0216,-4.67e-4 -0.0935,0.02005 -0.0935,0.02005 0,0 0.0372,0.01755 0.0391,0.01851 z m -1.11507,1.368513 c 0,0 1.07619,0.756935 1.34247,0.968958 0,0 -0.88087,0.963738 -2.31976,2.304392 -0.68999,-0.294738 -1.22553,-0.523208 -1.35107,-0.559752 -0.31849,-0.09273 -0.92944,-0.04086 -1.51515,0.04374 0.9072,-0.805719 1.68873,-1.603093 2.23302,-2.187176 z m 1.59383,9.882546 c 0,0 1.97258,1.766722 2.40883,2.546368 1.28713,2.30037 2.92238,1.091856 1.98036,-0.284951 -0.94202,-1.376807 -4.38919,-2.261417 -4.38919,-2.261417 z" />
      <path
         style="fill:#328641;fill-opacity:1;stroke:none;stroke-width:0.133842;stroke-linecap:round;stroke-linejoin:round;stroke-dasharray:none;stroke-opacity:1;paint-order:fill markers stroke"
         d="m 125.45528,44.51206 2.82687,2.323035 c 0,0 -3.42062,4.063423 -6.63456,5.631989 2.20689,-2.222901 3.66715,-4.766746 3.99883,-6.255127 0.19403,-0.870027 -0.19114,-1.699897 -0.19114,-1.699897 z"
         id="path644" />
      <path
         style="fill:#328641;fill-opacity:1;stroke:none;stroke-width:0.148535;stroke-linecap:round;stroke-linejoin:round;stroke-dasharray:none;stroke-opacity:1;paint-order:fill markers stroke"
         d="m 123.79947,50.186914 c 0,0 2.23826,-0.523368 2.96127,-0.312889 0.66088,0.1924 10.61939,4.824509 14.34505,4.824509 0.61389,0 -5.34144,1.005355 -5.34144,1.005355 0,0 -8.142,-4.615924 -9.99547,-5.238524 -1.04437,-0.350816 -1.96941,-0.278451 -1.96941,-0.278451 z"
         id="path652" />
      <path
         id="path615"
         style="fill:#328641;fill-opacity:1;stroke:none;stroke-width:0.143573;stroke-linecap:round;stroke-linejoin:round;stroke-dasharray:none;stroke-opacity:1;paint-order:fill markers stroke"
         d="m 130.2587,45.753391 c -0.0216,-4.68e-4 -0.0935,0.02005 -0.0935,0.02005 0,0 0.0372,0.01755 0.0391,0.01851 0.0571,-0.02748 0.068,-0.0383 0.0544,-0.03868 z m -0.0544,0.03868 c -0.14192,0.0684 -0.25861,0.251507 -1.48764,0.736576 -1.14011,0.449978 -2.47924,0.302987 -2.47924,0.302987 l 1.01941,0.977546 1.83236,-0.648801 c 0,0 1.07601,0.75709 1.3423,0.969119 0,0 -6.37439,6.982082 -12.92103,9.547472 7.14468,-1.551875 13.06991,-7.223771 15.15893,-9.011667 0.47617,-0.407535 1.47822,-0.464574 1.47822,-0.464574 -3.66904,-2.046121 -3.82134,-2.351728 -3.94331,-2.408658 z" />
      <path
         style="fill:#328641;fill-opacity:1;stroke:none;stroke-width:0.149236;stroke-linecap:round;stroke-linejoin:round;stroke-dasharray:none;stroke-opacity:1;paint-order:fill markers stroke"
         d="m 125.19327,56.100825 2.1107,1.407977 c 0,0 3.23498,-1.342017 4.98683,-1.507351 0.39419,-0.03721 1.54547,0.400471 0.52385,-0.261261 -0.36496,-0.236379 -1.96758,-1.24306 -1.96758,-1.24306 l -3.71594,1.402956 z"
         id="path634" />
      <path
         id="path637"
         style="fill:#328641;fill-opacity:1;stroke:none;stroke-width:0.164871;stroke-linecap:round;stroke-linejoin:round;stroke-dasharray:none;stroke-opacity:1;paint-order:fill markers stroke"
         d="m 127.17252,52.121468 -1.04831,0.434998 c 0.67378,0.386419 1.4032,0.529682 2.24601,2.040338 0.008,0.192707 0.0702,1.646195 0.12087,3.510421 0,0.461301 -0.006,1.580946 -0.17554,2.44168 -0.94532,0.21144 -2.865,-0.697424 -2.865,-0.697424 l 3.58529,3.447291 c 0,0 0.30718,-0.21461 1.11285,-0.916723 0,-7.210398 -0.38692,-6.696611 0.5964,-8.27741 0.38158,-0.613435 -3.57251,-1.983171 -3.57251,-1.983171 z" />
      <path
         style="fill:#328641;fill-opacity:1;stroke:none;stroke-width:0.594891;stroke-linecap:square;stroke-linejoin:miter;stroke-dasharray:none;stroke-opacity:1;paint-order:markers stroke fill"
         d="m 130.68294,57.043127 c 0,0 1.97248,1.766563 2.40873,2.546209 1.28713,2.300369 2.92247,1.091855 1.98047,-0.284952 -0.94203,-1.376813 -4.3892,-2.261257 -4.3892,-2.261257 z"
         id="path657" />
      <path
         style="fill:#328641;fill-opacity:1;stroke:none;stroke-width:0.0986001;stroke-linecap:round;stroke-linejoin:round;stroke-dasharray:none;stroke-opacity:1;paint-order:fill markers stroke"
         d="m 125.68601,57.03931 1.68154,2.039903 c 0,0 -2.78416,2.894443 -5.15488,3.859264 1.7528,-1.556397 3.02957,-3.423261 3.41884,-4.557668 0.22758,-0.663122 0.0544,-1.341499 0.0544,-1.341499 z"
         id="path658" />
    </g>
    <g
       id="g733"
       transform="translate(0.82122804)">
      <path
         id="path708"
         style="fill:#333333;fill-opacity:1;stroke:#ffffff;stroke-width:1.971;stroke-linecap:round;stroke-linejoin:round;stroke-dasharray:none;stroke-opacity:1;paint-order:fill markers stroke"
         d="m 39.584054,42.50858 c 0.709831,1.093292 0.389491,2.491352 0.01201,3.446772 -0.0098,0.0248 -0.01964,0.0484 -0.02951,0.0726 -0.02417,-0.0309 -0.05112,-0.0626 -0.08146,-0.095 -1.027574,-1.09906 -4.221461,-1.41751 -4.221461,-1.41751 0,0 2.339106,1.15116 2.494547,1.9418 0.02251,0.1145 0.09656,0.20776 0.203136,0.28042 l -0.90915,0.89479 c -0.488576,-0.56706 -1.249236,-1.10879 -1.961381,-1.49219 0.451733,-0.42725 0.72873,-0.71384 0.72873,-0.71384 l -1.943627,-2.357731 c 0,0 0.200109,0.784221 -0.06292,1.550671 -0.449938,1.31118 -1.925791,3.46903 -3.951745,5.26795 1.735306,-0.70622 3.65983,-2.30509 4.839745,-3.38412 0.53648,0.96487 0.780874,3.28965 1.287222,3.50292 1.373863,-0.086 1.512317,-0.96105 1.363985,-1.66138 0.203811,-0.66895 0.380483,-0.99123 0.689303,-1.56007 0.291042,0.15178 0.746397,0.18403 1.110719,0.10157 -0.0089,0.0156 -0.01985,0.0361 -0.02768,0.0496 -0.04488,0.0776 -0.0718,0.11985 -0.0718,0.11985 l 2.527184,-1.49192 c 0.361178,1.47119 -0.507299,3.14512 -0.783821,3.62667 -1.363748,0.51096 -3.068637,1.0165 -5.47944,1.58853 -0.134008,0.0318 -0.265943,0.0555 -0.39426,0.0726 -0.104565,0.0139 -0.204779,0.0209 -0.303659,0.0269 -0.07876,-0.0402 -0.158436,-0.0804 -0.241779,-0.12036 -0.937853,-0.44989 -2.103681,-0.87077 -2.103681,-0.87077 l -0.945703,0.39217 c 0.629411,0.36098 1.312364,0.48256 2.107336,1.98723 0.128008,3.53658 -0.130811,6.95749 -0.130811,8.96042 0.180064,0.86531 0.693481,0.96137 0.693481,0.96137 0,0 0.815032,-0.11821 1.219075,-1.62613 0.07506,-0.53696 -0.168133,-0.49157 -0.198175,-1.59114 -0.08107,-2.9675 -0.09824,-6.63691 0.457186,-7.27215 l 0.0765,0.0329 7.834821,-2.60839 c 0,0 0.620509,0.45738 1.07782,0.81385 2.23e-4,0.005 0.399054,8.9257 -0.0436,9.25129 -0.563343,0.126 -2.514177,-0.829 -3.501087,-1.26921 0.224895,-0.0332 0.416651,-0.0538 0.545959,-0.0538 0.123776,0 0.185147,-0.021 0.203658,-0.0553 l 5.22e-4,2.6e-4 c 0,0 0.692111,-1.22678 1.42926,-1.93736 0.389621,-0.37562 1.003692,-0.42704 1.071554,-0.47024 0.196132,-0.12486 -2.638675,-1.78958 -2.638675,-1.78958 0,0 -8e-5,-0.0261 -0.221935,0.052 -0.05546,0.0195 -0.124567,0.0456 -0.211229,0.0802 -0.259986,0.10364 -0.675967,0.28421 -1.341531,0.59635 -1.059756,0.49702 -1.836844,0.48758 -2.292978,0.40001 l -0.470502,-0.15327 -5.22e-4,-2.6e-4 -1.180693,-0.38486 c 0.67895,0.49943 1.258318,4.01621 1.601586,4.49483 0.2568,0.35806 1.048384,-0.11054 1.431088,-0.36946 0.44978,-0.10123 1.164249,-0.25608 1.763207,-0.35901 1.331655,1.08549 4.461933,3.699 4.461933,3.699 0,0 0.277019,-0.19339 1.003668,-0.82664 0.160035,-0.13948 0.241037,-0.68225 0.270238,-1.4431 l 0.01123,0.009 c 0,0 -0.0077,-0.1066 -0.0084,-0.11462 0.04841,-1.53338 -0.0976,-3.84302 -0.236035,-5.60294 0.01203,-1.53134 0.125539,-2.85449 0.457186,-3.17419 0.469093,-0.4522 1.2084,-0.51433 1.290094,-0.56633 0.236142,-0.1503 -3.176801,-2.15433 -3.176801,-2.15433 0,0 -0.147415,-0.2757 -2.284101,0.72638 -0.437599,0.20523 -0.910006,0.40493 -1.427954,0.6034 l 3.67994,-2.92145 c -1.222855,-0.0385 -2.031067,-0.0933 -2.821183,-0.78747 l 1.818038,-1.07312 c -0.07168,-0.002 -0.344689,-0.0246 -1.288006,-0.13134 -1.549714,-0.17537 -2.774707,-1.703672 -2.774707,-1.703672 z m 4.062713,1.835012 c 0.0019,4e-5 0.007,5e-4 0.0086,5.2e-4 0.03761,4.4e-4 0.0021,-0.007 0.0021,-0.007 z m -1.6713,-1.03579 c 0,0 2.339367,1.1509 2.494808,1.94154 0.02186,0.11118 0.09185,0.2027 0.193475,0.27442 0.01129,0.008 0.0232,0.0155 0.03525,0.023 0.650401,0.40429 2.364949,0.10591 1.497929,-0.82142 -1.027574,-1.09907 -4.221461,-1.41752 -4.221461,-1.41752 z m -1.104191,7.72151 -3.351477,1.26555 -1.747802,0.18094 1.903679,1.26973 c 0,0 2.917675,-1.21017 4.497705,-1.35929 0.355512,-0.0336 1.394003,0.36105 0.47259,-0.23577 -0.329158,-0.21319 -1.774695,-1.12116 -1.774695,-1.12116 z m -0.414627,3.68699 c 0,0 1.075674,0.79079 1.262418,0.97808 0.186759,0.18728 -0.751968,1.54231 -0.751968,1.54231 l -2.044411,0.45353 -0.657188,-2.38723 z" />
      <path
         id="path544"
         style="fill:#333333;fill-opacity:1;stroke:none;stroke-width:0.148699;stroke-linecap:round;stroke-linejoin:round;stroke-dasharray:none;stroke-opacity:1;paint-order:fill markers stroke"
         d="m 34.165832,45.723082 0.447444,0.63756 c 0.59921,0.85375 0.841764,3.42089 1.374963,3.64547 1.373863,-0.086 1.512178,-0.96119 1.363846,-1.66152 0.235381,-0.77258 0.422838,-1.06031 0.834821,-1.82887 v 0 l -1.134791,1.1166 c -0.714448,-0.82921 -2.010695,-1.60414 -2.886283,-1.90924 z" />
      <path
         style="fill:#333333;fill-opacity:1;stroke:none;stroke-width:0.134598;stroke-linecap:round;stroke-linejoin:round;stroke-dasharray:none;stroke-opacity:1;paint-order:fill markers stroke"
         d="m 35.772036,52.475782 1.903671,1.26987 c 0,0 2.91767,-1.21038 4.4977,-1.3595 0.355512,-0.0336 1.393876,0.36119 0.472462,-0.23563 -0.329158,-0.21319 -1.77459,-1.12114 -1.77459,-1.12114 l -3.351469,1.26535 z"
         id="path546" />
      <path
         style="fill:#333333;fill-opacity:1;stroke:none;stroke-width:0.113002;stroke-linecap:round;stroke-linejoin:round;stroke-dasharray:none;stroke-opacity:1;paint-order:fill markers stroke"
         d="m 35.813039,54.203492 2.361539,0.76996 0.882686,3.2047 c 0,0 -1.299541,0.99888 -1.64281,0.52025 -0.343268,-0.47862 -0.922465,-3.99548 -1.601415,-4.49491 z"
         id="path547" />
      <path
         style="fill:#333333;fill-opacity:1;stroke:none;stroke-width:0.113002;stroke-linecap:round;stroke-linejoin:round;stroke-dasharray:none;stroke-opacity:1;paint-order:fill markers stroke"
         d="m 36.993811,54.588472 c 0,0 0.9889,0.58568 2.763758,-0.24671 1.774837,-0.83239 1.774837,-0.72834 1.774837,-0.72834 0,0 2.834898,1.66478 2.638765,1.78964 -0.06786,0.0432 -0.682121,0.0947 -1.071742,0.47029 -0.737149,0.71058 -1.429282,1.93715 -1.429282,1.93715 l -0.70317,-0.57382 c 0,0 0.938932,-1.355 0.752172,-1.54228 -0.186743,-0.18729 -1.26259,-0.97806 -1.26259,-0.97806 l -2.747881,0.73574 z"
         id="path548" />
      <path
         style="fill:#333333;fill-opacity:1;stroke:none;stroke-width:0.113002;stroke-linecap:round;stroke-linejoin:round;stroke-dasharray:none;stroke-opacity:1;paint-order:fill markers stroke"
         d="m 37.650753,57.812762 0.758272,0.61616 c 0,0 2.379402,-0.56327 3.056995,-0.56327 0.67763,0 -0.499043,-0.62897 -0.499043,-0.62897 l -2.566032,0.56923 z"
         id="path550" />
      <path
         style="fill:#333333;fill-opacity:1;stroke:none;stroke-width:0.148699;stroke-linecap:round;stroke-linejoin:round;stroke-dasharray:none;stroke-opacity:1;paint-order:fill markers stroke"
         d="m 33.304159,50.767342 c 0,0 0.940498,0.26597 2.012568,0.0116 3.447752,-0.81807 5.468207,-1.5001 7.08118,-2.25657 2.136685,-1.00207 2.28425,-0.7265 2.28425,-0.7265 0,0 3.412824,2.00417 3.176681,2.15447 -0.08169,0.052 -0.821123,0.11398 -1.290216,0.56617 -0.887386,0.85544 -0.212621,8.89169 -0.212621,8.89169 l -0.846556,-0.69078 c 0,0 -0.377687,-8.19088 -0.602487,-8.41634 -0.224801,-0.22547 -1.51998,-1.17745 -1.51998,-1.17745 l -7.834871,2.60823 z"
         id="path552" />
      <path
         style="fill:#333333;fill-opacity:1;stroke:none;stroke-width:0.148699;stroke-linecap:round;stroke-linejoin:round;stroke-dasharray:none;stroke-opacity:1;paint-order:fill markers stroke"
         d="m 45.900821,51.273222 c 0,0 0.900123,8.93575 0.173544,9.569 -0.726649,0.63325 -1.003623,0.82672 -1.003623,0.82672 0,0 -3.32475,-2.77646 -4.589641,-3.80405 -0.957947,-0.77836 3.087582,1.51459 3.940185,1.32389 0.442781,-0.32568 0.04346,-9.25299 0.04346,-9.25299 l 1.036786,-0.0486 z"
         id="path553" />
      <path
         style="fill:#333333;fill-opacity:1;stroke:none;stroke-width:0.536539;stroke-linecap:square;stroke-linejoin:miter;stroke-dasharray:none;stroke-opacity:1;paint-order:markers stroke fill"
         d="m 35.263586,44.515432 c 0,0 2.33922,1.15103 2.494661,1.94167 0.155436,0.79062 2.754412,0.57497 1.726832,-0.52409 -1.027573,-1.09906 -4.221493,-1.41758 -4.221493,-1.41758 z"
         id="path556" />
      <path
         style="fill:#333333;fill-opacity:1;stroke:none;stroke-width:0.148699;stroke-linecap:round;stroke-linejoin:round;stroke-dasharray:none;stroke-opacity:1;paint-order:fill markers stroke"
         d="m 39.584023,42.508628 c 0,0 1.225053,1.528174 2.774768,1.703544 1.549747,0.17537 1.298801,0.12526 1.298801,0.12526 l -4.604895,2.71816 c 0,0 1.726832,-2.70564 0.531326,-4.546964 z"
         id="path558" />
      <path
         style="fill:#333333;fill-opacity:1;stroke:none;stroke-width:0.536539;stroke-linecap:square;stroke-linejoin:miter;stroke-dasharray:none;stroke-opacity:1;paint-order:markers stroke fill"
         d="m 41.975539,43.307792 c 0,0 2.33922,1.15102 2.494661,1.94166 0.155436,0.79063 2.754412,0.57498 1.726833,-0.52408 -1.027574,-1.09907 -4.221494,-1.41758 -4.221494,-1.41758 z"
         id="path559" />
      <path
         style="fill:#333333;fill-opacity:1;stroke:none;stroke-width:0.148699;stroke-linecap:round;stroke-linejoin:round;stroke-dasharray:none;stroke-opacity:1;paint-order:fill markers stroke"
         d="m 41.245065,44.782102 c 1.002469,1.3017 1.882204,1.37415 3.40485,1.42203 l -3.936177,3.12493 c 0,0 1.726833,-2.70563 0.531327,-4.54696 z"
         id="path560" />
      <path
         id="path561"
         style="fill:#333333;fill-opacity:1;stroke:none;stroke-width:0.148699;stroke-linecap:round;stroke-linejoin:round;stroke-dasharray:none;stroke-opacity:1;paint-order:fill markers stroke"
         d="m 32.273151,49.887132 -0.945477,0.39233 c 0.629412,0.36098 1.312246,0.48249 2.107219,1.98716 0.128008,3.53659 -0.130734,6.95758 -0.130734,8.96051 0.180063,0.86531 0.693309,0.96134 0.693309,0.96134 0,0 0.815108,-0.11815 1.219151,-1.62607 0.07506,-0.53696 -0.168029,-0.49158 -0.19807,-1.59115 -0.08203,-3.00255 -0.09905,-6.72582 0.476706,-7.29548 0.463165,-0.45827 -3.222104,-1.78864 -3.222104,-1.78864 z" />
      <path
         style="fill:#333333;fill-opacity:1;stroke:none;stroke-width:0.113966;stroke-linecap:round;stroke-linejoin:round;stroke-dasharray:none;stroke-opacity:1;paint-order:fill markers stroke"
         d="m 33.875869,43.068696 1.943574,2.357776 c 0,0 -3.218016,3.3455 -5.958171,4.46066 2.025954,-1.79892 3.50168,-3.95671 3.951618,-5.26789 0.263034,-0.76645 0.06298,-1.550546 0.06298,-1.550546 z"
         id="path633" />
      <path
         id="path659"
         style="fill:#333333;fill-opacity:1;stroke:none;stroke-width:0.148699;stroke-linecap:round;stroke-linejoin:round;stroke-dasharray:none;stroke-opacity:1;paint-order:fill markers stroke"
         d="m 34.165832,45.723082 0.447444,0.63756 c 0.59921,0.85375 0.841764,3.42089 1.374963,3.64547 1.373863,-0.086 1.512178,-0.96119 1.363846,-1.66152 0.235381,-0.77258 0.422838,-1.06031 0.834821,-1.82887 v 0 l -1.134791,1.1166 c -0.714448,-0.82921 -2.010695,-1.60414 -2.886283,-1.90924 z" />
      <path
         style="fill:#333333;fill-opacity:1;stroke:none;stroke-width:0.134598;stroke-linecap:round;stroke-linejoin:round;stroke-dasharray:none;stroke-opacity:1;paint-order:fill markers stroke"
         d="m 35.772036,52.475782 1.903671,1.26987 c 0,0 2.91767,-1.21038 4.4977,-1.3595 0.355512,-0.0336 1.393876,0.36119 0.472462,-0.23563 -0.329158,-0.21319 -1.77459,-1.12114 -1.77459,-1.12114 l -3.351469,1.26535 z"
         id="path660" />
      <path
         style="fill:#333333;fill-opacity:1;stroke:none;stroke-width:0.113002;stroke-linecap:round;stroke-linejoin:round;stroke-dasharray:none;stroke-opacity:1;paint-order:fill markers stroke"
         d="m 35.813039,54.203492 2.361539,0.76996 0.882686,3.2047 c 0,0 -1.299541,0.99888 -1.64281,0.52025 -0.343268,-0.47862 -0.922465,-3.99548 -1.601415,-4.49491 z"
         id="path661" />
      <path
         style="fill:#333333;fill-opacity:1;stroke:none;stroke-width:0.113002;stroke-linecap:round;stroke-linejoin:round;stroke-dasharray:none;stroke-opacity:1;paint-order:fill markers stroke"
         d="m 36.993811,54.588472 c 0,0 0.9889,0.58568 2.763758,-0.24671 1.774837,-0.83239 1.774837,-0.72834 1.774837,-0.72834 0,0 2.834898,1.66478 2.638765,1.78964 -0.06786,0.0432 -0.682121,0.0947 -1.071742,0.47029 -0.737149,0.71058 -1.429282,1.93715 -1.429282,1.93715 l -0.70317,-0.57382 c 0,0 0.938932,-1.355 0.752172,-1.54228 -0.186743,-0.18729 -1.26259,-0.97806 -1.26259,-0.97806 l -2.747881,0.73574 z"
         id="path662" />
      <path
         style="fill:#333333;fill-opacity:1;stroke:none;stroke-width:0.113002;stroke-linecap:round;stroke-linejoin:round;stroke-dasharray:none;stroke-opacity:1;paint-order:fill markers stroke"
         d="m 37.650753,57.812762 0.758272,0.61616 c 0,0 2.379402,-0.56327 3.056995,-0.56327 0.67763,0 -0.499043,-0.62897 -0.499043,-0.62897 l -2.566032,0.56923 z"
         id="path663" />
      <path
         style="fill:#333333;fill-opacity:1;stroke:none;stroke-width:0.148699;stroke-linecap:round;stroke-linejoin:round;stroke-dasharray:none;stroke-opacity:1;paint-order:fill markers stroke"
         d="m 33.304159,50.767342 c 0,0 0.940498,0.26597 2.012568,0.0116 3.447752,-0.81807 5.468207,-1.5001 7.08118,-2.25657 2.136685,-1.00207 2.28425,-0.7265 2.28425,-0.7265 0,0 3.412824,2.00417 3.176681,2.15447 -0.08169,0.052 -0.821123,0.11398 -1.290216,0.56617 -0.887386,0.85544 -0.212621,8.89169 -0.212621,8.89169 l -0.846556,-0.69078 c 0,0 -0.377687,-8.19088 -0.602487,-8.41634 -0.224801,-0.22547 -1.51998,-1.17745 -1.51998,-1.17745 l -7.834871,2.60823 z"
         id="path664" />
      <path
         style="fill:#333333;fill-opacity:1;stroke:none;stroke-width:0.148699;stroke-linecap:round;stroke-linejoin:round;stroke-dasharray:none;stroke-opacity:1;paint-order:fill markers stroke"
         d="m 45.900821,51.273222 c 0,0 0.900123,8.93575 0.173544,9.569 -0.726649,0.63325 -1.003623,0.82672 -1.003623,0.82672 0,0 -3.32475,-2.77646 -4.589641,-3.80405 -0.957947,-0.77836 3.087582,1.51459 3.940185,1.32389 0.442781,-0.32568 0.04346,-9.25299 0.04346,-9.25299 l 1.036786,-0.0486 z"
         id="path665" />
      <path
         style="fill:#333333;fill-opacity:1;stroke:none;stroke-width:0.536539;stroke-linecap:square;stroke-linejoin:miter;stroke-dasharray:none;stroke-opacity:1;paint-order:markers stroke fill"
         d="m 35.263586,44.515432 c 0,0 2.33922,1.15103 2.494661,1.94167 0.155436,0.79062 2.754412,0.57497 1.726832,-0.52409 -1.027573,-1.09906 -4.221493,-1.41758 -4.221493,-1.41758 z"
         id="path666" />
      <path
         style="fill:#333333;fill-opacity:1;stroke:none;stroke-width:0.148699;stroke-linecap:round;stroke-linejoin:round;stroke-dasharray:none;stroke-opacity:1;paint-order:fill markers stroke"
         d="m 39.584023,42.508628 c 0,0 1.225053,1.528174 2.774768,1.703544 1.549747,0.17537 1.298801,0.12526 1.298801,0.12526 l -4.604895,2.71816 c 0,0 1.726832,-2.70564 0.531326,-4.546964 z"
         id="path667" />
      <path
         style="fill:#333333;fill-opacity:1;stroke:none;stroke-width:0.536539;stroke-linecap:square;stroke-linejoin:miter;stroke-dasharray:none;stroke-opacity:1;paint-order:markers stroke fill"
         d="m 41.975539,43.307792 c 0,0 2.33922,1.15102 2.494661,1.94166 0.155436,0.79063 2.754412,0.57498 1.726833,-0.52408 -1.027574,-1.09907 -4.221494,-1.41758 -4.221494,-1.41758 z"
         id="path668" />
      <path
         style="fill:#333333;fill-opacity:1;stroke:none;stroke-width:0.148699;stroke-linecap:round;stroke-linejoin:round;stroke-dasharray:none;stroke-opacity:1;paint-order:fill markers stroke"
         d="m 41.245065,44.782102 c 1.002469,1.3017 1.882204,1.37415 3.40485,1.42203 l -3.936177,3.12493 c 0,0 1.726833,-2.70563 0.531327,-4.54696 z"
         id="path669" />
      <path
         id="path670"
         style="fill:#333333;fill-opacity:1;stroke:none;stroke-width:0.148699;stroke-linecap:round;stroke-linejoin:round;stroke-dasharray:none;stroke-opacity:1;paint-order:fill markers stroke"
         d="m 32.273151,49.887132 -0.945477,0.39233 c 0.629412,0.36098 1.312246,0.48249 2.107219,1.98716 0.128008,3.53659 -0.130734,6.95758 -0.130734,8.96051 0.180063,0.86531 0.693309,0.96134 0.693309,0.96134 0,0 0.815108,-0.11815 1.219151,-1.62607 0.07506,-0.53696 -0.168029,-0.49158 -0.19807,-1.59115 -0.08203,-3.00255 -0.09905,-6.72582 0.476706,-7.29548 0.463165,-0.45827 -3.222104,-1.78864 -3.222104,-1.78864 z" />
      <path
         style="fill:#333333;fill-opacity:1;stroke:none;stroke-width:0.113966;stroke-linecap:round;stroke-linejoin:round;stroke-dasharray:none;stroke-opacity:1;paint-order:fill markers stroke"
         d="m 33.875869,43.068696 1.943574,2.357776 c 0,0 -3.218016,3.3455 -5.958171,4.46066 2.025954,-1.79892 3.50168,-3.95671 3.951618,-5.26789 0.263034,-0.76645 0.06298,-1.550546 0.06298,-1.550546 z"
         id="path671" />
    </g>
    <rect
       style="fill:#ffffff;fill-opacity:1;stroke:#333333;stroke-width:3;stroke-linecap:square;stroke-linejoin:miter;stroke-dasharray:none;stroke-opacity:1;paint-order:markers fill stroke"
       id="rect735"
       width="53.126602"
       height="53.126602"
       x="-90.89595"
       y="93.895714"
       transform="matrix(0.70710978,-0.70710378,0.70710978,0.70710378,0,0)" />
    <rect
       style="fill:none;fill-opacity:1;stroke:#333333;stroke-width:0.999991;stroke-linecap:square;stroke-linejoin:miter;stroke-dasharray:none;stroke-opacity:1;paint-order:markers stroke fill"
       id="rect751"
       width="46.720074"
       height="46.720074"
       x="-87.692673"
       y="97.098961"
       transform="matrix(0.70710978,-0.70710378,0.70710978,0.70710378,0,0)" />
    <g
       id="g778"
       transform="translate(-27.293819,-127.87656)">
      <circle
         style="fill:none;fill-opacity:1;stroke:#333333;stroke-width:4.67324;stroke-linecap:round;stroke-linejoin:round;stroke-dasharray:none;stroke-opacity:1;paint-order:fill markers stroke"
         id="path64"
         cx="66.883499"
         cy="257.14386"
         r="15.623878" />
      <circle
         style="fill:none;fill-opacity:1;stroke:#333333;stroke-width:3.46537;stroke-linecap:round;stroke-linejoin:round;stroke-dasharray:none;stroke-opacity:1;paint-order:fill markers stroke"
         id="circle64"
         cx="66.883499"
         cy="257.14386"
         r="10.191474" />
      <circle
         style="fill:none;fill-opacity:1;stroke:#333333;stroke-width:3.24096;stroke-linecap:round;stroke-linejoin:round;stroke-dasharray:none;stroke-opacity:1;paint-order:fill markers stroke"
         id="circle65"
         cx="66.883499"
         cy="257.14386"
         r="5.5611124" />
      <circle
         style="fill:#333333;fill-opacity:1;stroke:none;stroke-width:4.32128;stroke-linecap:round;stroke-linejoin:round;stroke-dasharray:none;stroke-opacity:1;paint-order:fill markers stroke"
         id="path65"
         cx="66.883499"
         cy="257.14386"
         r="2.5302413" />
    </g>
    <g
       id="g777"
       transform="translate(0.82122804,90.979366)">
      <path
         id="path751"
         style="fill:#333333;fill-opacity:1;stroke:#ffffff;stroke-width:1.971;stroke-linecap:round;stroke-linejoin:round;stroke-dasharray:none;stroke-opacity:1;paint-order:fill markers stroke"
         d="m 39.584054,42.50858 c 0.709831,1.093292 0.389491,2.491352 0.01201,3.446772 -0.0098,0.0248 -0.01964,0.0484 -0.02951,0.0726 -0.02417,-0.0309 -0.05112,-0.0626 -0.08146,-0.095 -1.027574,-1.09906 -4.221461,-1.41751 -4.221461,-1.41751 0,0 2.339106,1.15116 2.494547,1.9418 0.02251,0.1145 0.09656,0.20776 0.203136,0.28042 l -0.90915,0.89479 c -0.488576,-0.56706 -1.249236,-1.10879 -1.961381,-1.49219 0.451733,-0.42725 0.72873,-0.71384 0.72873,-0.71384 l -1.943627,-2.357731 c 0,0 0.200109,0.784221 -0.06292,1.550671 -0.449938,1.31118 -1.925791,3.46903 -3.951745,5.26795 1.735306,-0.70622 3.65983,-2.30509 4.839745,-3.38412 0.53648,0.96487 0.780874,3.28965 1.287222,3.50292 1.373863,-0.086 1.512317,-0.96105 1.363985,-1.66138 0.203811,-0.66895 0.380483,-0.99123 0.689303,-1.56007 0.291042,0.15178 0.746397,0.18403 1.110719,0.10157 -0.0089,0.0156 -0.01985,0.0361 -0.02768,0.0496 -0.04488,0.0776 -0.0718,0.11985 -0.0718,0.11985 l 2.527184,-1.49192 c 0.361178,1.47119 -0.507299,3.14512 -0.783821,3.62667 -1.363748,0.51096 -3.068637,1.0165 -5.47944,1.58853 -0.134008,0.0318 -0.265943,0.0555 -0.39426,0.0726 -0.104565,0.0139 -0.204779,0.0209 -0.303659,0.0269 -0.07876,-0.0402 -0.158436,-0.0804 -0.241779,-0.12036 -0.937853,-0.44989 -2.103681,-0.87077 -2.103681,-0.87077 l -0.945703,0.39217 c 0.629411,0.36098 1.312364,0.48256 2.107336,1.98723 0.128008,3.53658 -0.130811,6.95749 -0.130811,8.96042 0.180064,0.86531 0.693481,0.96137 0.693481,0.96137 0,0 0.815032,-0.11821 1.219075,-1.62613 0.07506,-0.53696 -0.168133,-0.49157 -0.198175,-1.59114 -0.08107,-2.9675 -0.09824,-6.63691 0.457186,-7.27215 l 0.0765,0.0329 7.834821,-2.60839 c 0,0 0.620509,0.45738 1.07782,0.81385 2.23e-4,0.005 0.399054,8.9257 -0.0436,9.25129 -0.563343,0.126 -2.514177,-0.829 -3.501087,-1.26921 0.224895,-0.0332 0.416651,-0.0538 0.545959,-0.0538 0.123776,0 0.185147,-0.021 0.203658,-0.0553 l 5.22e-4,2.6e-4 c 0,0 0.692111,-1.22678 1.42926,-1.93736 0.389621,-0.37562 1.003692,-0.42704 1.071554,-0.47024 0.196132,-0.12486 -2.638675,-1.78958 -2.638675,-1.78958 0,0 -8e-5,-0.0261 -0.221935,0.052 -0.05546,0.0195 -0.124567,0.0456 -0.211229,0.0802 -0.259986,0.10364 -0.675967,0.28421 -1.341531,0.59635 -1.059756,0.49702 -1.836844,0.48758 -2.292978,0.40001 l -0.470502,-0.15327 -5.22e-4,-2.6e-4 -1.180693,-0.38486 c 0.67895,0.49943 1.258318,4.01621 1.601586,4.49483 0.2568,0.35806 1.048384,-0.11054 1.431088,-0.36946 0.44978,-0.10123 1.164249,-0.25608 1.763207,-0.35901 1.331655,1.08549 4.461933,3.699 4.461933,3.699 0,0 0.277019,-0.19339 1.003668,-0.82664 0.160035,-0.13948 0.241037,-0.68225 0.270238,-1.4431 l 0.01123,0.009 c 0,0 -0.0077,-0.1066 -0.0084,-0.11462 0.04841,-1.53338 -0.0976,-3.84302 -0.236035,-5.60294 0.01203,-1.53134 0.125539,-2.85449 0.457186,-3.17419 0.469093,-0.4522 1.2084,-0.51433 1.290094,-0.56633 0.236142,-0.1503 -3.176801,-2.15433 -3.176801,-2.15433 0,0 -0.147415,-0.2757 -2.284101,0.72638 -0.437599,0.20523 -0.910006,0.40493 -1.427954,0.6034 l 3.67994,-2.92145 c -1.222855,-0.0385 -2.031067,-0.0933 -2.821183,-0.78747 l 1.818038,-1.07312 c -0.07168,-0.002 -0.344689,-0.0246 -1.288006,-0.13134 -1.549714,-0.17537 -2.774707,-1.703672 -2.774707,-1.703672 z m 4.062713,1.835012 c 0.0019,4e-5 0.007,5e-4 0.0086,5.2e-4 0.03761,4.4e-4 0.0021,-0.007 0.0021,-0.007 z m -1.6713,-1.03579 c 0,0 2.339367,1.1509 2.494808,1.94154 0.02186,0.11118 0.09185,0.2027 0.193475,0.27442 0.01129,0.008 0.0232,0.0155 0.03525,0.023 0.650401,0.40429 2.364949,0.10591 1.497929,-0.82142 -1.027574,-1.09907 -4.221461,-1.41752 -4.221461,-1.41752 z m -1.104191,7.72151 -3.351477,1.26555 -1.747802,0.18094 1.903679,1.26973 c 0,0 2.917675,-1.21017 4.497705,-1.35929 0.355512,-0.0336 1.394003,0.36105 0.47259,-0.23577 -0.329158,-0.21319 -1.774695,-1.12116 -1.774695,-1.12116 z m -0.414627,3.68699 c 0,0 1.075674,0.79079 1.262418,0.97808 0.186759,0.18728 -0.751968,1.54231 -0.751968,1.54231 l -2.044411,0.45353 -0.657188,-2.38723 z" />
      <path
         id="path752"
         style="fill:#333333;fill-opacity:1;stroke:none;stroke-width:0.148699;stroke-linecap:round;stroke-linejoin:round;stroke-dasharray:none;stroke-opacity:1;paint-order:fill markers stroke"
         d="m 34.165832,45.723082 0.447444,0.63756 c 0.59921,0.85375 0.841764,3.42089 1.374963,3.64547 1.373863,-0.086 1.512178,-0.96119 1.363846,-1.66152 0.235381,-0.77258 0.422838,-1.06031 0.834821,-1.82887 v 0 l -1.134791,1.1166 c -0.714448,-0.82921 -2.010695,-1.60414 -2.886283,-1.90924 z" />
      <path
         style="fill:#333333;fill-opacity:1;stroke:none;stroke-width:0.134598;stroke-linecap:round;stroke-linejoin:round;stroke-dasharray:none;stroke-opacity:1;paint-order:fill markers stroke"
         d="m 35.772036,52.475782 1.903671,1.26987 c 0,0 2.91767,-1.21038 4.4977,-1.3595 0.355512,-0.0336 1.393876,0.36119 0.472462,-0.23563 -0.329158,-0.21319 -1.77459,-1.12114 -1.77459,-1.12114 l -3.351469,1.26535 z"
         id="path753" />
      <path
         style="fill:#333333;fill-opacity:1;stroke:none;stroke-width:0.113002;stroke-linecap:round;stroke-linejoin:round;stroke-dasharray:none;stroke-opacity:1;paint-order:fill markers stroke"
         d="m 35.813039,54.203492 2.361539,0.76996 0.882686,3.2047 c 0,0 -1.299541,0.99888 -1.64281,0.52025 -0.343268,-0.47862 -0.922465,-3.99548 -1.601415,-4.49491 z"
         id="path754" />
      <path
         style="fill:#333333;fill-opacity:1;stroke:none;stroke-width:0.113002;stroke-linecap:round;stroke-linejoin:round;stroke-dasharray:none;stroke-opacity:1;paint-order:fill markers stroke"
         d="m 36.993811,54.588472 c 0,0 0.9889,0.58568 2.763758,-0.24671 1.774837,-0.83239 1.774837,-0.72834 1.774837,-0.72834 0,0 2.834898,1.66478 2.638765,1.78964 -0.06786,0.0432 -0.682121,0.0947 -1.071742,0.47029 -0.737149,0.71058 -1.429282,1.93715 -1.429282,1.93715 l -0.70317,-0.57382 c 0,0 0.938932,-1.355 0.752172,-1.54228 -0.186743,-0.18729 -1.26259,-0.97806 -1.26259,-0.97806 l -2.747881,0.73574 z"
         id="path755" />
      <path
         style="fill:#333333;fill-opacity:1;stroke:none;stroke-width:0.113002;stroke-linecap:round;stroke-linejoin:round;stroke-dasharray:none;stroke-opacity:1;paint-order:fill markers stroke"
         d="m 37.650753,57.812762 0.758272,0.61616 c 0,0 2.379402,-0.56327 3.056995,-0.56327 0.67763,0 -0.499043,-0.62897 -0.499043,-0.62897 l -2.566032,0.56923 z"
         id="path756" />
      <path
         style="fill:#333333;fill-opacity:1;stroke:none;stroke-width:0.148699;stroke-linecap:round;stroke-linejoin:round;stroke-dasharray:none;stroke-opacity:1;paint-order:fill markers stroke"
         d="m 33.304159,50.767342 c 0,0 0.940498,0.26597 2.012568,0.0116 3.447752,-0.81807 5.468207,-1.5001 7.08118,-2.25657 2.136685,-1.00207 2.28425,-0.7265 2.28425,-0.7265 0,0 3.412824,2.00417 3.176681,2.15447 -0.08169,0.052 -0.821123,0.11398 -1.290216,0.56617 -0.887386,0.85544 -0.212621,8.89169 -0.212621,8.89169 l -0.846556,-0.69078 c 0,0 -0.377687,-8.19088 -0.602487,-8.41634 -0.224801,-0.22547 -1.51998,-1.17745 -1.51998,-1.17745 l -7.834871,2.60823 z"
         id="path757" />
      <path
         style="fill:#333333;fill-opacity:1;stroke:none;stroke-width:0.148699;stroke-linecap:round;stroke-linejoin:round;stroke-dasharray:none;stroke-opacity:1;paint-order:fill markers stroke"
         d="m 45.900821,51.273222 c 0,0 0.900123,8.93575 0.173544,9.569 -0.726649,0.63325 -1.003623,0.82672 -1.003623,0.82672 0,0 -3.32475,-2.77646 -4.589641,-3.80405 -0.957947,-0.77836 3.087582,1.51459 3.940185,1.32389 0.442781,-0.32568 0.04346,-9.25299 0.04346,-9.25299 l 1.036786,-0.0486 z"
         id="path758" />
      <path
         style="fill:#333333;fill-opacity:1;stroke:none;stroke-width:0.536539;stroke-linecap:square;stroke-linejoin:miter;stroke-dasharray:none;stroke-opacity:1;paint-order:markers stroke fill"
         d="m 35.263586,44.515432 c 0,0 2.33922,1.15103 2.494661,1.94167 0.155436,0.79062 2.754412,0.57497 1.726832,-0.52409 -1.027573,-1.09906 -4.221493,-1.41758 -4.221493,-1.41758 z"
         id="path759" />
      <path
         style="fill:#333333;fill-opacity:1;stroke:none;stroke-width:0.148699;stroke-linecap:round;stroke-linejoin:round;stroke-dasharray:none;stroke-opacity:1;paint-order:fill markers stroke"
         d="m 39.584023,42.508628 c 0,0 1.225053,1.528174 2.774768,1.703544 1.549747,0.17537 1.298801,0.12526 1.298801,0.12526 l -4.604895,2.71816 c 0,0 1.726832,-2.70564 0.531326,-4.546964 z"
         id="path760" />
      <path
         style="fill:#333333;fill-opacity:1;stroke:none;stroke-width:0.536539;stroke-linecap:square;stroke-linejoin:miter;stroke-dasharray:none;stroke-opacity:1;paint-order:markers stroke fill"
         d="m 41.975539,43.307792 c 0,0 2.33922,1.15102 2.494661,1.94166 0.155436,0.79063 2.754412,0.57498 1.726833,-0.52408 -1.027574,-1.09907 -4.221494,-1.41758 -4.221494,-1.41758 z"
         id="path761" />
      <path
         style="fill:#333333;fill-opacity:1;stroke:none;stroke-width:0.148699;stroke-linecap:round;stroke-linejoin:round;stroke-dasharray:none;stroke-opacity:1;paint-order:fill markers stroke"
         d="m 41.245065,44.782102 c 1.002469,1.3017 1.882204,1.37415 3.40485,1.42203 l -3.936177,3.12493 c 0,0 1.726833,-2.70563 0.531327,-4.54696 z"
         id="path762" />
      <path
         id="path763"
         style="fill:#333333;fill-opacity:1;stroke:none;stroke-width:0.148699;stroke-linecap:round;stroke-linejoin:round;stroke-dasharray:none;stroke-opacity:1;paint-order:fill markers stroke"
         d="m 32.273151,49.887132 -0.945477,0.39233 c 0.629412,0.36098 1.312246,0.48249 2.107219,1.98716 0.128008,3.53659 -0.130734,6.95758 -0.130734,8.96051 0.180063,0.86531 0.693309,0.96134 0.693309,0.96134 0,0 0.815108,-0.11815 1.219151,-1.62607 0.07506,-0.53696 -0.168029,-0.49158 -0.19807,-1.59115 -0.08203,-3.00255 -0.09905,-6.72582 0.476706,-7.29548 0.463165,-0.45827 -3.222104,-1.78864 -3.222104,-1.78864 z" />
      <path
         style="fill:#333333;fill-opacity:1;stroke:none;stroke-width:0.113966;stroke-linecap:round;stroke-linejoin:round;stroke-dasharray:none;stroke-opacity:1;paint-order:fill markers stroke"
         d="m 33.875869,43.068696 1.943574,2.357776 c 0,0 -3.218016,3.3455 -5.958171,4.46066 2.025954,-1.79892 3.50168,-3.95671 3.951618,-5.26789 0.263034,-0.76645 0.06298,-1.550546 0.06298,-1.550546 z"
         id="path764" />
      <path
         id="path765"
         style="fill:#333333;fill-opacity:1;stroke:none;stroke-width:0.148699;stroke-linecap:round;stroke-linejoin:round;stroke-dasharray:none;stroke-opacity:1;paint-order:fill markers stroke"
         d="m 34.165832,45.723082 0.447444,0.63756 c 0.59921,0.85375 0.841764,3.42089 1.374963,3.64547 1.373863,-0.086 1.512178,-0.96119 1.363846,-1.66152 0.235381,-0.77258 0.422838,-1.06031 0.834821,-1.82887 v 0 l -1.134791,1.1166 c -0.714448,-0.82921 -2.010695,-1.60414 -2.886283,-1.90924 z" />
      <path
         style="fill:#333333;fill-opacity:1;stroke:none;stroke-width:0.134598;stroke-linecap:round;stroke-linejoin:round;stroke-dasharray:none;stroke-opacity:1;paint-order:fill markers stroke"
         d="m 35.772036,52.475782 1.903671,1.26987 c 0,0 2.91767,-1.21038 4.4977,-1.3595 0.355512,-0.0336 1.393876,0.36119 0.472462,-0.23563 -0.329158,-0.21319 -1.77459,-1.12114 -1.77459,-1.12114 l -3.351469,1.26535 z"
         id="path766" />
      <path
         style="fill:#333333;fill-opacity:1;stroke:none;stroke-width:0.113002;stroke-linecap:round;stroke-linejoin:round;stroke-dasharray:none;stroke-opacity:1;paint-order:fill markers stroke"
         d="m 35.813039,54.203492 2.361539,0.76996 0.882686,3.2047 c 0,0 -1.299541,0.99888 -1.64281,0.52025 -0.343268,-0.47862 -0.922465,-3.99548 -1.601415,-4.49491 z"
         id="path767" />
      <path
         style="fill:#333333;fill-opacity:1;stroke:none;stroke-width:0.113002;stroke-linecap:round;stroke-linejoin:round;stroke-dasharray:none;stroke-opacity:1;paint-order:fill markers stroke"
         d="m 36.993811,54.588472 c 0,0 0.9889,0.58568 2.763758,-0.24671 1.774837,-0.83239 1.774837,-0.72834 1.774837,-0.72834 0,0 2.834898,1.66478 2.638765,1.78964 -0.06786,0.0432 -0.682121,0.0947 -1.071742,0.47029 -0.737149,0.71058 -1.429282,1.93715 -1.429282,1.93715 l -0.70317,-0.57382 c 0,0 0.938932,-1.355 0.752172,-1.54228 -0.186743,-0.18729 -1.26259,-0.97806 -1.26259,-0.97806 l -2.747881,0.73574 z"
         id="path768" />
      <path
         style="fill:#333333;fill-opacity:1;stroke:none;stroke-width:0.113002;stroke-linecap:round;stroke-linejoin:round;stroke-dasharray:none;stroke-opacity:1;paint-order:fill markers stroke"
         d="m 37.650753,57.812762 0.758272,0.61616 c 0,0 2.379402,-0.56327 3.056995,-0.56327 0.67763,0 -0.499043,-0.62897 -0.499043,-0.62897 l -2.566032,0.56923 z"
         id="path769" />
      <path
         style="fill:#333333;fill-opacity:1;stroke:none;stroke-width:0.148699;stroke-linecap:round;stroke-linejoin:round;stroke-dasharray:none;stroke-opacity:1;paint-order:fill markers stroke"
         d="m 33.304159,50.767342 c 0,0 0.940498,0.26597 2.012568,0.0116 3.447752,-0.81807 5.468207,-1.5001 7.08118,-2.25657 2.136685,-1.00207 2.28425,-0.7265 2.28425,-0.7265 0,0 3.412824,2.00417 3.176681,2.15447 -0.08169,0.052 -0.821123,0.11398 -1.290216,0.56617 -0.887386,0.85544 -0.212621,8.89169 -0.212621,8.89169 l -0.846556,-0.69078 c 0,0 -0.377687,-8.19088 -0.602487,-8.41634 -0.224801,-0.22547 -1.51998,-1.17745 -1.51998,-1.17745 l -7.834871,2.60823 z"
         id="path770" />
      <path
         style="fill:#333333;fill-opacity:1;stroke:none;stroke-width:0.148699;stroke-linecap:round;stroke-linejoin:round;stroke-dasharray:none;stroke-opacity:1;paint-order:fill markers stroke"
         d="m 45.900821,51.273222 c 0,0 0.900123,8.93575 0.173544,9.569 -0.726649,0.63325 -1.003623,0.82672 -1.003623,0.82672 0,0 -3.32475,-2.77646 -4.589641,-3.80405 -0.957947,-0.77836 3.087582,1.51459 3.940185,1.32389 0.442781,-0.32568 0.04346,-9.25299 0.04346,-9.25299 l 1.036786,-0.0486 z"
         id="path771" />
      <path
         style="fill:#333333;fill-opacity:1;stroke:none;stroke-width:0.536539;stroke-linecap:square;stroke-linejoin:miter;stroke-dasharray:none;stroke-opacity:1;paint-order:markers stroke fill"
         d="m 35.263586,44.515432 c 0,0 2.33922,1.15103 2.494661,1.94167 0.155436,0.79062 2.754412,0.57497 1.726832,-0.52409 -1.027573,-1.09906 -4.221493,-1.41758 -4.221493,-1.41758 z"
         id="path772" />
      <path
         style="fill:#333333;fill-opacity:1;stroke:none;stroke-width:0.148699;stroke-linecap:round;stroke-linejoin:round;stroke-dasharray:none;stroke-opacity:1;paint-order:fill markers stroke"
         d="m 39.584023,42.508628 c 0,0 1.225053,1.528174 2.774768,1.703544 1.549747,0.17537 1.298801,0.12526 1.298801,0.12526 l -4.604895,2.71816 c 0,0 1.726832,-2.70564 0.531326,-4.546964 z"
         id="path773" />
      <path
         style="fill:#333333;fill-opacity:1;stroke:none;stroke-width:0.536539;stroke-linecap:square;stroke-linejoin:miter;stroke-dasharray:none;stroke-opacity:1;paint-order:markers stroke fill"
         d="m 41.975539,43.307792 c 0,0 2.33922,1.15102 2.494661,1.94166 0.155436,0.79063 2.754412,0.57498 1.726833,-0.52408 -1.027574,-1.09907 -4.221494,-1.41758 -4.221494,-1.41758 z"
         id="path774" />
      <path
         style="fill:#333333;fill-opacity:1;stroke:none;stroke-width:0.148699;stroke-linecap:round;stroke-linejoin:round;stroke-dasharray:none;stroke-opacity:1;paint-order:fill markers stroke"
         d="m 41.245065,44.782102 c 1.002469,1.3017 1.882204,1.37415 3.40485,1.42203 l -3.936177,3.12493 c 0,0 1.726833,-2.70563 0.531327,-4.54696 z"
         id="path775" />
      <path
         id="path776"
         style="fill:#333333;fill-opacity:1;stroke:none;stroke-width:0.148699;stroke-linecap:round;stroke-linejoin:round;stroke-dasharray:none;stroke-opacity:1;paint-order:fill markers stroke"
         d="m 32.273151,49.887132 -0.945477,0.39233 c 0.629412,0.36098 1.312246,0.48249 2.107219,1.98716 0.128008,3.53659 -0.130734,6.95758 -0.130734,8.96051 0.180063,0.86531 0.693309,0.96134 0.693309,0.96134 0,0 0.815108,-0.11815 1.219151,-1.62607 0.07506,-0.53696 -0.168029,-0.49158 -0.19807,-1.59115 -0.08203,-3.00255 -0.09905,-6.72582 0.476706,-7.29548 0.463165,-0.45827 -3.222104,-1.78864 -3.222104,-1.78864 z" />
      <path
         style="fill:#333333;fill-opacity:1;stroke:none;stroke-width:0.113966;stroke-linecap:round;stroke-linejoin:round;stroke-dasharray:none;stroke-opacity:1;paint-order:fill markers stroke"
         d="m 33.875869,43.068696 1.943574,2.357776 c 0,0 -3.218016,3.3455 -5.958171,4.46066 2.025954,-1.79892 3.50168,-3.95671 3.951618,-5.26789 0.263034,-0.76645 0.06298,-1.550546 0.06298,-1.550546 z"
         id="path777" />
    </g>
    <rect
       style="fill:#ffffff;fill-opacity:1;stroke:#328641;stroke-width:3;stroke-linecap:square;stroke-linejoin:miter;stroke-dasharray:none;stroke-opacity:1;paint-order:markers fill stroke"
       id="rect778"
       width="53.126602"
       height="53.126602"
       x="-26.626335"
       y="156.0209"
       transform="matrix(0.70710978,-0.70710378,0.70710978,0.70710378,0,0)" />
    <rect
       style="fill:none;fill-opacity:1;stroke:#328641;stroke-width:0.999991;stroke-linecap:square;stroke-linejoin:miter;stroke-dasharray:none;stroke-opacity:1;paint-order:markers stroke fill"
       id="rect779"
       width="46.720074"
       height="46.720074"
       x="-23.423065"
       y="159.22417"
       transform="matrix(0.70710978,-0.70710378,0.70710978,0.70710378,0,0)" />
    <g
       id="g788"
       transform="translate(0.86478776,-44.956891)">
      <g
         id="g789">
        <g
           id="g262"
           transform="matrix(0.68421051,0,0,0.68421051,-510.47003,157.11518)">
          <ellipse
             style="opacity:1;fill:#328641;fill-opacity:1;stroke:none;stroke-width:4.22222;stroke-linecap:round;stroke-linejoin:round;stroke-dasharray:none;stroke-opacity:0;paint-order:fill markers stroke"
             id="path259"
             cx="933.4375"
             cy="10.39495"
             rx="9.6033773"
             ry="9.3366175" />
          <ellipse
             style="opacity:1;fill:#328641;fill-opacity:1;stroke:none;stroke-width:4.22222;stroke-linecap:round;stroke-linejoin:round;stroke-dasharray:none;stroke-opacity:0;paint-order:fill markers stroke"
             id="ellipse259"
             cx="933.4375"
             cy="24.83485"
             rx="9.6033773"
             ry="9.3366175" />
          <ellipse
             style="opacity:1;fill:#328641;fill-opacity:1;stroke:none;stroke-width:4.22222;stroke-linecap:round;stroke-linejoin:round;stroke-dasharray:none;stroke-opacity:0;paint-order:fill markers stroke"
             id="ellipse262"
             cx="933.4375"
             cy="39.27475"
             rx="9.6033773"
             ry="9.3366175" />
        </g>
        <path
           style="fill:#328641;fill-opacity:1;stroke:#ffffff;stroke-width:3.85884;stroke-linecap:round;stroke-linejoin:round;stroke-dasharray:none;stroke-opacity:1;paint-order:fill markers stroke"
           d="m 128.19771,163.43012 v 21.35464"
           id="path262" />
      </g>
    </g>
    <g
       id="g787"
       transform="translate(0,89.463046)">
      <path
         id="path780"
         style="fill:#328641;fill-opacity:1;stroke:#ffffff;stroke-width:1.921;stroke-linecap:round;stroke-linejoin:round;stroke-dasharray:none;stroke-opacity:1;paint-order:fill markers stroke"
         d="m 125.45525,44.51204 c 0,0 0.3852,0.829813 0.19118,1.69984 -0.33169,1.488375 -1.79186,4.032316 -3.99875,6.255216 1.09671,-0.535248 2.21714,-1.361192 3.21785,-2.216873 0.27553,0.04221 0.58159,0.107078 0.90332,0.215155 0.33763,0.113405 0.88754,0.36178 1.55528,0.688163 -2.47029,2.213697 -6.11363,5.073549 -9.81378,6.523503 3.65226,-0.793294 6.98141,-2.663188 9.64682,-4.540537 0.37983,0.272713 0.78148,0.686729 1.21301,1.460207 0.003,0.07031 0.0184,0.458669 0.0325,0.823344 l -1.27163,0.480054 -1.9379,0.200821 2.11086,1.407844 c 0,0 0.47404,-0.196562 1.15571,-0.448005 0.0105,0.33321 0.0211,0.673695 0.0312,1.046575 0,0.461301 -0.006,1.58092 -0.17556,2.441654 -0.55829,0.124876 -1.45,-0.140862 -2.09185,-0.379508 0.69074,-0.621006 1.14399,-1.090332 1.14399,-1.090332 l -1.6816,-2.039749 c 0,0 0.17314,0.678307 -0.0544,1.341429 -0.38928,1.134407 -1.66615,3.001323 -3.41895,4.557726 1.31594,-0.535555 2.75769,-1.665012 3.78152,-2.564603 l 3.04179,2.924834 c 0,0 0.30705,-0.214739 1.11273,-0.916857 0,-3.177481 -0.0748,-4.853054 -0.0747,-5.870764 0.78525,-0.242854 1.59444,-0.451002 2.21686,-0.509745 0.39418,-0.03721 1.54544,0.400484 0.52382,-0.261248 -0.36496,-0.23638 -1.9676,-1.242971 -1.9676,-1.242971 l -0.43134,0.162791 c 0.0877,-0.163073 0.19489,-0.338936 0.32949,-0.555326 0.26286,-0.422592 -1.51596,-1.195859 -2.65811,-1.641226 0.2484,-0.185175 0.4932,-0.36994 0.72723,-0.551682 3.02344,1.56952 6.95016,3.792202 6.95016,3.792202 0,0 5.95512,-1.005419 5.34123,-1.005419 -2.53606,0 -7.90899,-2.128029 -11.32269,-3.559339 1.26409,-1.031896 2.25348,-1.93237 2.88628,-2.473959 0.47617,-0.407535 1.47844,-0.46442 1.47844,-0.46442 -3.66904,-2.046122 -3.82158,-2.351914 -3.94354,-2.408837 -0.14192,0.06839 -0.25852,0.251545 -1.48755,0.736613 -0.19311,0.07621 -0.39188,0.134144 -0.58893,0.179725 z m 4.7489,1.279958 c 0.0571,-0.02748 0.0681,-0.03843 0.0544,-0.03881 v 2.56e-4 c -0.0216,-4.67e-4 -0.0935,0.02005 -0.0935,0.02005 0,0 0.0372,0.01755 0.0391,0.01851 z m -1.11507,1.368513 c 0,0 1.07619,0.756935 1.34247,0.968958 0,0 -0.88087,0.963738 -2.31976,2.304392 -0.68999,-0.294738 -1.22553,-0.523208 -1.35107,-0.559752 -0.31849,-0.09273 -0.92944,-0.04086 -1.51515,0.04374 0.9072,-0.805719 1.68873,-1.603093 2.23302,-2.187176 z m 1.59383,9.882546 c 0,0 1.97258,1.766722 2.40883,2.546368 1.28713,2.30037 2.92238,1.091856 1.98036,-0.284951 -0.94202,-1.376807 -4.38919,-2.261417 -4.38919,-2.261417 z" />
      <path
         style="fill:#328641;fill-opacity:1;stroke:none;stroke-width:0.133842;stroke-linecap:round;stroke-linejoin:round;stroke-dasharray:none;stroke-opacity:1;paint-order:fill markers stroke"
         d="m 125.45528,44.51206 2.82687,2.323035 c 0,0 -3.42062,4.063423 -6.63456,5.631989 2.20689,-2.222901 3.66715,-4.766746 3.99883,-6.255127 0.19403,-0.870027 -0.19114,-1.699897 -0.19114,-1.699897 z"
         id="path781" />
      <path
         style="fill:#328641;fill-opacity:1;stroke:none;stroke-width:0.148535;stroke-linecap:round;stroke-linejoin:round;stroke-dasharray:none;stroke-opacity:1;paint-order:fill markers stroke"
         d="m 123.79947,50.186914 c 0,0 2.23826,-0.523368 2.96127,-0.312889 0.66088,0.1924 10.61939,4.824509 14.34505,4.824509 0.61389,0 -5.34144,1.005355 -5.34144,1.005355 0,0 -8.142,-4.615924 -9.99547,-5.238524 -1.04437,-0.350816 -1.96941,-0.278451 -1.96941,-0.278451 z"
         id="path782" />
      <path
         id="path783"
         style="fill:#328641;fill-opacity:1;stroke:none;stroke-width:0.143573;stroke-linecap:round;stroke-linejoin:round;stroke-dasharray:none;stroke-opacity:1;paint-order:fill markers stroke"
         d="m 130.2587,45.753391 c -0.0216,-4.68e-4 -0.0935,0.02005 -0.0935,0.02005 0,0 0.0372,0.01755 0.0391,0.01851 0.0571,-0.02748 0.068,-0.0383 0.0544,-0.03868 z m -0.0544,0.03868 c -0.14192,0.0684 -0.25861,0.251507 -1.48764,0.736576 -1.14011,0.449978 -2.47924,0.302987 -2.47924,0.302987 l 1.01941,0.977546 1.83236,-0.648801 c 0,0 1.07601,0.75709 1.3423,0.969119 0,0 -6.37439,6.982082 -12.92103,9.547472 7.14468,-1.551875 13.06991,-7.223771 15.15893,-9.011667 0.47617,-0.407535 1.47822,-0.464574 1.47822,-0.464574 -3.66904,-2.046121 -3.82134,-2.351728 -3.94331,-2.408658 z" />
      <path
         style="fill:#328641;fill-opacity:1;stroke:none;stroke-width:0.149236;stroke-linecap:round;stroke-linejoin:round;stroke-dasharray:none;stroke-opacity:1;paint-order:fill markers stroke"
         d="m 125.19327,56.100825 2.1107,1.407977 c 0,0 3.23498,-1.342017 4.98683,-1.507351 0.39419,-0.03721 1.54547,0.400471 0.52385,-0.261261 -0.36496,-0.236379 -1.96758,-1.24306 -1.96758,-1.24306 l -3.71594,1.402956 z"
         id="path784" />
      <path
         id="path785"
         style="fill:#328641;fill-opacity:1;stroke:none;stroke-width:0.164871;stroke-linecap:round;stroke-linejoin:round;stroke-dasharray:none;stroke-opacity:1;paint-order:fill markers stroke"
         d="m 127.17252,52.121468 -1.04831,0.434998 c 0.67378,0.386419 1.4032,0.529682 2.24601,2.040338 0.008,0.192707 0.0702,1.646195 0.12087,3.510421 0,0.461301 -0.006,1.580946 -0.17554,2.44168 -0.94532,0.21144 -2.865,-0.697424 -2.865,-0.697424 l 3.58529,3.447291 c 0,0 0.30718,-0.21461 1.11285,-0.916723 0,-7.210398 -0.38692,-6.696611 0.5964,-8.27741 0.38158,-0.613435 -3.57251,-1.983171 -3.57251,-1.983171 z" />
      <path
         style="fill:#328641;fill-opacity:1;stroke:none;stroke-width:0.594891;stroke-linecap:square;stroke-linejoin:miter;stroke-dasharray:none;stroke-opacity:1;paint-order:markers stroke fill"
         d="m 130.68294,57.043127 c 0,0 1.97248,1.766563 2.40873,2.546209 1.28713,2.300369 2.92247,1.091855 1.98047,-0.284952 -0.94203,-1.376813 -4.3892,-2.261257 -4.3892,-2.261257 z"
         id="path786" />
      <path
         style="fill:#328641;fill-opacity:1;stroke:none;stroke-width:0.0986001;stroke-linecap:round;stroke-linejoin:round;stroke-dasharray:none;stroke-opacity:1;paint-order:fill markers stroke"
         d="m 125.68601,57.03931 1.68154,2.039903 c 0,0 -2.78416,2.894443 -5.15488,3.859264 1.7528,-1.556397 3.02957,-3.423261 3.41884,-4.557668 0.22758,-0.663122 0.0544,-1.341499 0.0544,-1.341499 z"
         id="path787" />
    </g>
  </g>
</svg>
